<svg xmlns="http://www.w3.org/2000/svg" width="216" height="121" viewBox="0 0 216 121"><g><g><path fill="#fff" d="M113.709 4.71l4.44 10.584a64.048 64.048 0 0 0-6.352 2.655L107.36 7.37zM88.396 20.162l8.16 8.088a64.779 64.779 0 0 0-4.847 4.889l-8.159-8.088zM70.924 44.127l10.617 4.344a64.085 64.085 0 0 0-2.599 6.374l-10.624-4.347zm119.987-24.412l4.888 4.846-8.088 8.16a64.648 64.648 0 0 0-4.888-4.847zM165.464 4.483l6.37 2.606-4.343 10.617a64.05 64.05 0 0 0-6.373-2.6zM143.008.118l.05 11.483a65.206 65.206 0 0 0-3.441-.078 65.253 65.253 0 0 0-3.442.108l-.05-11.483zm65.584 43.408l2.661 6.348-10.585 4.439a64.287 64.287 0 0 0-2.654-6.351zm7.222 28.764l.03 6.883-11.483.05c.055-1.14.083-2.286.078-3.441a65.28 65.28 0 0 0-.108-3.442zM139.65 19.116c31.451-.138 57.059 25.247 57.196 56.699a57.218 57.218 0 0 1-.89 10.238 42.018 42.018 0 0 0-5.495-5.241c.152-1.637.231-3.294.224-4.97-.122-28.004-23.005-50.687-51.008-50.565-21.407.094-39.69 13.493-47.069 32.307a50.066 50.066 0 0 0-7.226 1.98c7.048-23.314 28.642-40.336 54.268-40.448zM102.166 67.42A44.298 44.298 0 0 0 63.37 90.7l-2.836 5.251-5.34-2.667a33.612 33.612 0 0 0-15.303-3.57 33.855 33.855 0 0 0-22.952 9.067 33.936 33.936 0 0 0-9.49 15.308l192.358-.84c-2.405-17.383-17.4-30.775-35.42-30.696a35.556 35.556 0 0 0-17.97 4.964l-4.843 2.873-3.296-4.566c-8.363-11.586-21.863-18.465-36.112-18.403 0 0 16.216-.07 0 0zm-.027-6.16c16.926-.075 31.93 8.205 41.135 20.957a41.554 41.554 0 0 1 21.086-5.826c23.065-.101 41.844 18.514 41.945 41.578.002.473-.017.942-.03 1.412l-206.218.9c1.722-20.495 18.849-36.638 39.807-36.73 6.5-.028 12.641 1.5 18.084 4.22 8.486-15.716 25.072-26.428 44.191-26.512z"/></g></g></svg>