<svg xmlns="http://www.w3.org/2000/svg" width="216" height="131" viewBox="0 0 216 131"><g><g><path fill="#fff" d="M215.764 65.233l-215.889.943.287-3.406c.915-10.888 5.843-20.992 13.877-28.454A43.746 43.746 0 0 1 43.695 22.6c5.941-.026 11.677 1.11 17.091 3.38A54.365 54.365 0 0 1 106.944-.04c16.567-.073 32.306 7.493 42.643 20.37a45.535 45.535 0 0 1 20.55-5.002c25.113-.11 45.633 20.23 45.743 45.343.002.411-.01.82-.022 1.226zM6.836 59.888l202.743-.886c-.984-20.874-18.32-37.51-39.414-37.418a39.241 39.241 0 0 0-19.834 5.48l-2.46 1.459-1.673-2.319C137.115 13.621 122.45 6.148 106.97 6.216A48.119 48.119 0 0 0 64.828 31.5l-1.44 2.667-2.71-1.355a37.237 37.237 0 0 0-16.955-3.955c-18.479.08-33.778 13.195-36.887 31.03zm26.195 43.364c-4.915.022-8.93-3.959-8.952-8.874-.016-3.665 4.308-11.334 6.168-14.461l2.663-4.478 2.701 4.454c1.887 3.11 6.278 10.742 6.294 14.407.021 4.915-3.96 8.93-8.874 8.952zm-.066-15.31c-1.52 2.977-2.596 5.544-2.628 6.42a2.656 2.656 0 0 0 5.31-.034c-.04-.87-1.138-3.425-2.682-6.387zm91.373 25.928c-6.803.03-12.362-5.48-12.391-12.283-.025-5.667 7.958-19.378 9.559-22.07l2.662-4.476 2.701 4.453c1.625 2.678 9.727 16.319 9.752 21.985.03 6.803-5.48 12.361-12.283 12.39zm-.116-26.464c-3.231 5.956-6.027 12.103-6.018 14.153a6.086 6.086 0 0 0 6.106 6.053 6.086 6.086 0 0 0 6.053-6.106c-.009-2.052-2.857-8.174-6.141-14.1zm55.228 32.834c-6.803.03-12.361-5.48-12.391-12.284-.025-5.666 7.958-19.377 9.559-22.068l2.662-4.478 2.702 4.454c1.624 2.677 9.726 16.318 9.75 21.985.03 6.803-5.48 12.36-12.282 12.39zm-.116-26.464c-3.231 5.956-6.027 12.103-6.018 14.153a6.086 6.086 0 0 0 6.106 6.053 6.086 6.086 0 0 0 6.053-6.106c-.009-2.052-2.857-8.174-6.14-14.1zm-97.89 36.567c-5.588.024-10.154-4.501-10.179-10.09-.019-4.393 5.642-14.255 7.377-17.173l2.663-4.478 2.701 4.454c1.76 2.903 7.508 12.715 7.527 17.11.024 5.587-4.502 10.152-10.09 10.177zm-.085-19.307c-2.127 4.037-3.842 7.91-3.836 9.19a3.88 3.88 0 0 0 3.893 3.86 3.88 3.88 0 0 0 3.86-3.893c-.006-1.284-1.755-5.14-3.917-9.157z"/></g></g></svg>