<svg xmlns="http://www.w3.org/2000/svg" width="169" height="169" viewBox="0 0 169 169"><g><g><path fill="#fff" d="M55.896 5.243l4.91 11.71a71 71 0 0 0-7.025 2.935l-4.907-11.7zm-28 17.095l9.025 8.947a71.676 71.676 0 0 0-5.36 5.407l-9.026-8.947zM13.56 80.678a72.729 72.729 0 0 0-.086 3.807c.005 1.278.048 2.546.12 3.807L.89 88.347l-.033-7.614zM8.57 48.846l11.744 4.805a70.968 70.968 0 0 0-2.875 7.05L5.686 55.894zm132.725-27.003l5.408 5.36-8.947 9.025a71.729 71.729 0 0 0-5.407-5.36zm-28.148-16.85l7.047 2.883-4.804 11.743a70.972 70.972 0 0 0-7.05-2.874zM88.306.165l.056 12.702a72.09 72.09 0 0 0-3.807-.086 72.105 72.105 0 0 0-3.807.12L80.692.197zm72.546 48.016l2.944 7.022-11.709 4.91a70.935 70.935 0 0 0-2.936-7.025zM17.645 108.233a70.962 70.962 0 0 0 2.937 7.026L8.88 120.166l-2.944-7.022zm134.65-.587l11.751 4.807-2.882 7.048-11.744-4.805a70.877 70.877 0 0 0 2.875-7.05zm-14.123 24.009l9.025 8.947-5.36 5.407-9.026-8.947a71.768 71.768 0 0 0 5.36-5.407zM168.842 80l.033 7.614-12.702.055c.06-1.261.092-2.53.086-3.808a72.263 72.263 0 0 0-.12-3.806zm-52.89 68.458l4.906 11.701-7.021 2.945-4.91-11.71a70.88 70.88 0 0 0 7.025-2.936zm-83.974-16.34a71.688 71.688 0 0 0 5.407 5.36l-8.947 9.026-5.407-5.36zm22.366 16.61a70.97 70.97 0 0 0 7.05 2.874l-4.808 11.752-7.047-2.883zm34.64 6.718l.056 12.703-7.614.033-.055-12.702c1.26.06 2.53.092 3.808.086a71.926 71.926 0 0 0 3.806-.12zM84.622 27.995c-30.977.135-56.068 25.447-55.933 56.424.135 30.977 25.447 56.068 56.424 55.933 30.977-.136 56.068-25.447 55.932-56.424-.135-30.977-25.446-56.069-56.423-55.933zm-.03-6.815c34.79-.153 63.117 27.928 63.269 62.718.152 34.79-27.928 63.117-62.718 63.27-34.79.151-63.117-27.929-63.27-62.72-.151-34.79 27.929-63.116 62.72-63.268z"/></g></g></svg>